<svg width="1024" height="1024" viewBox="0 0 1024 1024" fill="none" xmlns="http://www.w3.org/2000/svg">
<g id="clock">
<g id="device">
<g id="body">
<rect id="body_2" x="210" y="366" width="604" height="196" rx="26" fill="black" stroke="white" stroke-width="4"/>
<g id="neelts">
<g id="c1">
<g id="n">
<path id="union" fill-rule="evenodd" clip-rule="evenodd" d="M260 411.5H263H266H269V414.5V417.5V420.5H266V417.5V414.5H263V417.5V420.5H260V417.5V414.5V411.5Z" fill="white"/>
</g>
</g>
<g id="c2">
<g id="e">
<path id="union_2" fill-rule="evenodd" clip-rule="evenodd" d="M275 411.5H272V414.5H275H278H281V411.5H278H275ZM281 417.5H278H275H272V420.5H275H278H281V417.5Z" fill="white"/>
</g>
</g>
<g id="c3">
<g id="e_2">
<path id="union_3" fill-rule="evenodd" clip-rule="evenodd" d="M287 411.5H284V414.5H287H290H293V411.5H290H287ZM293 417.5H290H287H284V420.5H287H290H293V417.5Z" fill="white"/>
</g>
</g>
<g id="c4">
<g id="l">
<path id="union_4" fill-rule="evenodd" clip-rule="evenodd" d="M296 411.5H299V414.5V417.5H302H305V420.5H302H299H296V417.5V414.5V411.5Z" fill="white"/>
</g>
</g>
<g id="c5">
<g id="t">
<path id="union_5" fill-rule="evenodd" clip-rule="evenodd" d="M306 411.5H309H312H315V414.5H312V417.5V420.5H309V417.5V414.5H306V411.5Z" fill="white"/>
</g>
</g>
<g id="c6">
<g id="s">
<path id="union_6" fill-rule="evenodd" clip-rule="evenodd" d="M322 411.5H319V414.5H322H325V411.5H322ZM319 417.5H322V420.5H319H316V417.5H319Z" fill="white"/>
</g>
</g>
</g>
<g id="buttons">
<rect id="outline" opacity="0.5" x="634" y="394" width="140" height="44" rx="22" fill="black" stroke="white" stroke-width="4"/>
<mask id="mask0_1494_19759" style="mask-type:alpha" maskUnits="userSpaceOnUse" x="636" y="396" width="136" height="40">
<rect id="inner-mask" x="636" y="396" width="136" height="40" rx="20" fill="black"/>
</mask>
<g mask="url(#mask0_1494_19759)">
<rect id="inner" opacity="0.25" x="635" y="403" width="138" height="42" rx="21" fill="black" stroke="white" stroke-width="2"/>
</g>
<mask id="mask1_1494_19759" style="mask-type:alpha" maskUnits="userSpaceOnUse" x="636" y="386" width="136" height="50">
<rect id="mask" x="636" y="386" width="136" height="50" rx="20" fill="black"/>
</mask>
<g mask="url(#mask1_1494_19759)">
<g id="actions">
<g id="right">
<g id="body_3">
<mask id="path-12-outside-1_1494_19759" maskUnits="userSpaceOnUse" x="705" y="398" width="65" height="36" fill="black">
<rect fill="white" x="705" y="398" width="65" height="36"/>
<path fill-rule="evenodd" clip-rule="evenodd" d="M752 400H707V410V416V432H752C760.837 432 768 424.837 768 416V410H766.837C764.463 404.136 758.715 400 752 400Z"/>
</mask>
<path fill-rule="evenodd" clip-rule="evenodd" d="M752 400H707V410V416V432H752C760.837 432 768 424.837 768 416V410H766.837C764.463 404.136 758.715 400 752 400Z" fill="black"/>
<path d="M707 400V398H705V400H707ZM707 432H705V434H707V432ZM768 410H770V408H768V410ZM766.837 410L764.983 410.75L765.489 412H766.837V410ZM707 402H752V398H707V402ZM709 410V400H705V410H709ZM709 416V410H705V416H709ZM709 432V416H705V432H709ZM752 430H707V434H752V430ZM766 416C766 423.732 759.732 430 752 430V434C761.941 434 770 425.941 770 416H766ZM766 410V416H770V410H766ZM766.837 412H768V408H766.837V412ZM752 402C757.872 402 762.905 405.616 764.983 410.75L768.691 409.25C766.022 402.657 759.557 398 752 398V402Z" fill="white" mask="url(#path-12-outside-1_1494_19759)"/>
</g>
<path id="front" d="M707 391H706V392V424V425H707H752C761.389 425 769 417.389 769 408C769 398.611 761.389 391 752 391H707Z" fill="black" stroke="white" stroke-width="2"/>
</g>
<g id="left">
<g id="body_4">
<mask id="path-15-outside-2_1494_19759" maskUnits="userSpaceOnUse" x="638" y="398" width="65" height="36" fill="black">
<rect fill="white" x="638" y="398" width="65" height="36"/>
<path fill-rule="evenodd" clip-rule="evenodd" d="M640 416V410H641.163C643.537 404.136 649.285 400 656 400H701V410V416V432H656C647.163 432 640 424.837 640 416Z"/>
</mask>
<path fill-rule="evenodd" clip-rule="evenodd" d="M640 416V410H641.163C643.537 404.136 649.285 400 656 400H701V410V416V432H656C647.163 432 640 424.837 640 416Z" fill="black"/>
<path d="M640 410V408H638V410H640ZM641.163 410V412H642.511L643.017 410.75L641.163 410ZM701 400H703V398H701V400ZM701 432V434H703V432H701ZM642 416V410H638V416H642ZM640 412H641.163V408H640V412ZM643.017 410.75C645.095 405.616 650.128 402 656 402V398C648.443 398 641.978 402.657 639.309 409.25L643.017 410.75ZM656 402H701V398H656V402ZM699 400V410H703V400H699ZM699 410V416H703V410H699ZM699 416V432H703V416H699ZM701 430H656V434H701V430ZM656 430C648.268 430 642 423.732 642 416H638C638 425.941 646.059 434 656 434V430Z" fill="white" mask="url(#path-15-outside-2_1494_19759)"/>
</g>
<path id="front_2" d="M702 392V391H701H656C646.611 391 639 398.611 639 408C639 417.389 646.611 425 656 425H701H702V424V392Z" fill="black" stroke="white" stroke-width="2"/>
</g>
</g>
</g>
</g>
</g>
<g id="display">
<rect x="210" y="462" width="604.001" height="196" rx="26" fill="black"/>
<g id="time">
<g id="chars">
<g id="char">
<path id="br" d="M284 608L308 608" stroke="white" stroke-width="4.5" stroke-linecap="round" stroke-linejoin="round"/>
<path id="bl" d="M260 608L284 608" stroke="white" stroke-width="4.5" stroke-linecap="round" stroke-linejoin="round"/>
<path id="rb" opacity="0.1" d="M308 584L308 608" stroke="white" stroke-width="4.5" stroke-linecap="round" stroke-linejoin="round"/>
<path id="rbb" opacity="0.1" d="M308 584C308 597.255 297.255 608 284 608" stroke="white" stroke-width="4.5" stroke-linecap="round" stroke-linejoin="round"/>
<path id="b" d="M284 560V608" stroke="white" stroke-width="4.5" stroke-linecap="round" stroke-linejoin="round"/>
<path id="lbb" opacity="0.1" d="M284 608C270.745 608 260 597.255 260 584" stroke="white" stroke-width="4.5" stroke-linecap="round" stroke-linejoin="round"/>
<path id="lb" opacity="0.1" d="M260 584V608" stroke="white" stroke-width="4.5" stroke-linecap="round" stroke-linejoin="round"/>
<path id="rcb" opacity="0.1" d="M308 560L308 584" stroke="white" stroke-width="4.5" stroke-linecap="round" stroke-linejoin="round"/>
<path id="rbc" opacity="0.1" d="M284 560C297.255 560 308 570.745 308 584" stroke="white" stroke-width="4.5" stroke-linecap="round" stroke-linejoin="round"/>
<path id="lbc" opacity="0.1" d="M260 584C260 570.745 270.745 560 284 560" stroke="white" stroke-width="4.5" stroke-linecap="round" stroke-linejoin="round"/>
<path id="lcb" opacity="0.1" d="M260 560L260 584" stroke="white" stroke-width="4.5" stroke-linecap="round" stroke-linejoin="round"/>
<path id="rc" opacity="0.1" d="M284 560L308 560" stroke="white" stroke-width="4.5" stroke-linecap="round" stroke-linejoin="round"/>
<path id="lc" opacity="0.1" d="M284 560H260" stroke="white" stroke-width="4.5" stroke-linecap="round" stroke-linejoin="round"/>
<path id="rct" opacity="0.1" d="M308 536L308 560" stroke="white" stroke-width="4.5" stroke-linecap="round" stroke-linejoin="round"/>
<path id="rtc" opacity="0.1" d="M308 536C308 549.255 297.255 560 284 560" stroke="white" stroke-width="4.5" stroke-linecap="round" stroke-linejoin="round"/>
<path id="ltc" opacity="0.1" d="M284 560C270.745 560 260 549.255 260 536" stroke="white" stroke-width="4.5" stroke-linecap="round" stroke-linejoin="round"/>
<path id="lct" opacity="0.1" d="M260 536L260 560" stroke="white" stroke-width="4.5" stroke-linecap="round" stroke-linejoin="round"/>
<path id="rt" opacity="0.1" d="M308 536L308 512" stroke="white" stroke-width="4.5" stroke-linecap="round" stroke-linejoin="round"/>
<path id="rtt" opacity="0.1" d="M284 512C297.255 512 308 522.745 308 536" stroke="white" stroke-width="4.5" stroke-linecap="round" stroke-linejoin="round"/>
<path id="t_2" d="M284 512V560" stroke="white" stroke-width="4.5" stroke-linecap="round" stroke-linejoin="round"/>
<path id="ltt" opacity="0.1" d="M260 536C260 522.745 270.745 512 284 512" stroke="white" stroke-width="4.5" stroke-linecap="round" stroke-linejoin="round"/>
<path id="lt" opacity="0.1" d="M260 536V512" stroke="white" stroke-width="4.5" stroke-linecap="round" stroke-linejoin="round"/>
<path id="tr" opacity="0.1" d="M284 512H308" stroke="white" stroke-width="4.5" stroke-linecap="round" stroke-linejoin="round"/>
<path id="tl" d="M260 512H284" stroke="white" stroke-width="4.5" stroke-linecap="round" stroke-linejoin="round"/>
</g>
</g>
<g id="chars_2">
<g id="char_2">
<path id="br_2" opacity="0.1" d="M356 608L380 608" stroke="white" stroke-width="4.5" stroke-linecap="round" stroke-linejoin="round"/>
<path id="bl_2" opacity="0.1" d="M332 608L356 608" stroke="white" stroke-width="4.5" stroke-linecap="round" stroke-linejoin="round"/>
<path id="rb_2" opacity="0.1" d="M380 584L380 608" stroke="white" stroke-width="4.5" stroke-linecap="round" stroke-linejoin="round"/>
<path id="rbb_2" d="M380 584C380 597.255 369.255 608 356 608" stroke="white" stroke-width="4.5" stroke-linecap="round" stroke-linejoin="round"/>
<path id="b_2" opacity="0.1" d="M356 560V608" stroke="white" stroke-width="4.5" stroke-linecap="round" stroke-linejoin="round"/>
<path id="lbb_2" d="M356 608C342.745 608 332 597.255 332 584" stroke="white" stroke-width="4.5" stroke-linecap="round" stroke-linejoin="round"/>
<path id="lb_2" opacity="0.1" d="M332 584V608" stroke="white" stroke-width="4.5" stroke-linecap="round" stroke-linejoin="round"/>
<path id="rcb_2" opacity="0.1" d="M380 560L380 584" stroke="white" stroke-width="4.5" stroke-linecap="round" stroke-linejoin="round"/>
<path id="rbc_2" d="M356 560C369.255 560 380 570.745 380 584" stroke="white" stroke-width="4.5" stroke-linecap="round" stroke-linejoin="round"/>
<path id="lbc_2" opacity="0.1" d="M332 584C332 570.745 342.745 560 356 560" stroke="white" stroke-width="4.5" stroke-linecap="round" stroke-linejoin="round"/>
<path id="lcb_2" opacity="0.1" d="M332 560L332 584" stroke="white" stroke-width="4.5" stroke-linecap="round" stroke-linejoin="round"/>
<path id="rc_2" opacity="0.1" d="M356 560L380 560" stroke="white" stroke-width="4.5" stroke-linecap="round" stroke-linejoin="round"/>
<path id="lc_2" opacity="0.1" d="M356 560H332" stroke="white" stroke-width="4.5" stroke-linecap="round" stroke-linejoin="round"/>
<path id="rct_2" opacity="0.1" d="M380 536L380 560" stroke="white" stroke-width="4.5" stroke-linecap="round" stroke-linejoin="round"/>
<path id="rtc_2" d="M380 536C380 549.255 369.255 560 356 560" stroke="white" stroke-width="4.5" stroke-linecap="round" stroke-linejoin="round"/>
<path id="ltc_2" opacity="0.1" d="M356 560C342.745 560 332 549.255 332 536" stroke="white" stroke-width="4.5" stroke-linecap="round" stroke-linejoin="round"/>
<path id="lct_2" opacity="0.1" d="M332 536L332 560" stroke="white" stroke-width="4.5" stroke-linecap="round" stroke-linejoin="round"/>
<path id="rt_2" opacity="0.1" d="M380 536L380 512" stroke="white" stroke-width="4.5" stroke-linecap="round" stroke-linejoin="round"/>
<path id="rtt_2" d="M356 512C369.255 512 380 522.745 380 536" stroke="white" stroke-width="4.5" stroke-linecap="round" stroke-linejoin="round"/>
<path id="t_3" opacity="0.1" d="M356 512V560" stroke="white" stroke-width="4.5" stroke-linecap="round" stroke-linejoin="round"/>
<path id="ltt_2" d="M332 536C332 522.745 342.745 512 356 512" stroke="white" stroke-width="4.5" stroke-linecap="round" stroke-linejoin="round"/>
<path id="lt_2" opacity="0.1" d="M332 536V512" stroke="white" stroke-width="4.5" stroke-linecap="round" stroke-linejoin="round"/>
<path id="tr_2" opacity="0.1" d="M356 512H380" stroke="white" stroke-width="4.5" stroke-linecap="round" stroke-linejoin="round"/>
<path id="tl_2" opacity="0.1" d="M332 512H356" stroke="white" stroke-width="4.5" stroke-linecap="round" stroke-linejoin="round"/>
</g>
</g>
<g id="chars_3">
<g id="char_3">
<path id="br_3" opacity="0.1" d="M428 608L452 608" stroke="white" stroke-width="4.5" stroke-linecap="round" stroke-linejoin="round"/>
<path id="bl_3" opacity="0.1" d="M404 608L428 608" stroke="white" stroke-width="4.5" stroke-linecap="round" stroke-linejoin="round"/>
<path id="rb_3" opacity="0.1" d="M452 584L452 608" stroke="white" stroke-width="4.5" stroke-linecap="round" stroke-linejoin="round"/>
<path id="rbb_3" d="M452 584C452 597.255 441.255 608 428 608" stroke="white" stroke-width="4.5" stroke-linecap="round" stroke-linejoin="round"/>
<path id="b_3" opacity="0.1" d="M428 560V608" stroke="white" stroke-width="4.5" stroke-linecap="round" stroke-linejoin="round"/>
<path id="lbb_3" d="M428 608C414.745 608 404 597.255 404 584" stroke="white" stroke-width="4.5" stroke-linecap="round" stroke-linejoin="round"/>
<path id="lb_3" opacity="0.1" d="M404 584V608" stroke="white" stroke-width="4.5" stroke-linecap="round" stroke-linejoin="round"/>
<path id="rcb_3" opacity="0.1" d="M452 560L452 584" stroke="white" stroke-width="4.5" stroke-linecap="round" stroke-linejoin="round"/>
<path id="rbc_3" d="M428 560C441.255 560 452 570.745 452 584" stroke="white" stroke-width="4.5" stroke-linecap="round" stroke-linejoin="round"/>
<path id="lbc_3" d="M404 584C404 570.745 414.745 560 428 560" stroke="white" stroke-width="4.5" stroke-linecap="round" stroke-linejoin="round"/>
<path id="lcb_3" opacity="0.1" d="M404 560L404 584" stroke="white" stroke-width="4.5" stroke-linecap="round" stroke-linejoin="round"/>
<path id="rc_3" opacity="0.1" d="M428 560L452 560" stroke="white" stroke-width="4.5" stroke-linecap="round" stroke-linejoin="round"/>
<path id="lc_3" opacity="0.1" d="M428 560H404" stroke="white" stroke-width="4.5" stroke-linecap="round" stroke-linejoin="round"/>
<path id="rct_3" opacity="0.1" d="M452 536L452 560" stroke="white" stroke-width="4.5" stroke-linecap="round" stroke-linejoin="round"/>
<path id="rtc_3" opacity="0.1" d="M452 536C452 549.255 441.255 560 428 560" stroke="white" stroke-width="4.5" stroke-linecap="round" stroke-linejoin="round"/>
<path id="ltc_3" opacity="0.1" d="M428 560C414.745 560 404 549.255 404 536" stroke="white" stroke-width="4.5" stroke-linecap="round" stroke-linejoin="round"/>
<path id="lct_3" opacity="0.1" d="M404 536L404 560" stroke="white" stroke-width="4.5" stroke-linecap="round" stroke-linejoin="round"/>
<path id="rt_3" opacity="0.1" d="M452 536L452 512" stroke="white" stroke-width="4.5" stroke-linecap="round" stroke-linejoin="round"/>
<path id="rtt_3" opacity="0.1" d="M428 512C441.255 512 452 522.745 452 536" stroke="white" stroke-width="4.5" stroke-linecap="round" stroke-linejoin="round"/>
<path id="t_4" opacity="0.1" d="M428 512V560" stroke="white" stroke-width="4.5" stroke-linecap="round" stroke-linejoin="round"/>
<path id="ltt_3" opacity="0.1" d="M404 536C404 522.745 414.745 512 428 512" stroke="white" stroke-width="4.5" stroke-linecap="round" stroke-linejoin="round"/>
<path id="lt_3" opacity="0.1" d="M404 536V512" stroke="white" stroke-width="4.5" stroke-linecap="round" stroke-linejoin="round"/>
<path id="tr_3" opacity="0.1" d="M428 512H452" stroke="white" stroke-width="4.5" stroke-linecap="round" stroke-linejoin="round"/>
<path id="tl_3" opacity="0.1" d="M404 512H428" stroke="white" stroke-width="4.5" stroke-linecap="round" stroke-linejoin="round"/>
</g>
</g>
<g id="chars_4">
<g id="char_4">
<path id="br_4" opacity="0.1" d="M500 608L524 608" stroke="white" stroke-width="4.5" stroke-linecap="round" stroke-linejoin="round"/>
<path id="bl_4" opacity="0.1" d="M476 608L500 608" stroke="white" stroke-width="4.5" stroke-linecap="round" stroke-linejoin="round"/>
<path id="rb_4" opacity="0.1" d="M524 584L524 608" stroke="white" stroke-width="4.5" stroke-linecap="round" stroke-linejoin="round"/>
<path id="rbb_4" d="M524 584C524 597.255 513.255 608 500 608" stroke="white" stroke-width="4.5" stroke-linecap="round" stroke-linejoin="round"/>
<path id="b_4" opacity="0.1" d="M500 560V608" stroke="white" stroke-width="4.5" stroke-linecap="round" stroke-linejoin="round"/>
<path id="lbb_4" d="M500 608C486.745 608 476 597.255 476 584" stroke="white" stroke-width="4.5" stroke-linecap="round" stroke-linejoin="round"/>
<path id="lb_4" opacity="0.1" d="M476 584V608" stroke="white" stroke-width="4.5" stroke-linecap="round" stroke-linejoin="round"/>
<path id="rcb_4" opacity="0.1" d="M524 560L524 584" stroke="white" stroke-width="4.5" stroke-linecap="round" stroke-linejoin="round"/>
<path id="rbc_4" d="M500 560C513.255 560 524 570.745 524 584" stroke="white" stroke-width="4.5" stroke-linecap="round" stroke-linejoin="round"/>
<path id="lbc_4" opacity="0.1" d="M476 584C476 570.745 486.745 560 500 560" stroke="white" stroke-width="4.5" stroke-linecap="round" stroke-linejoin="round"/>
<path id="lcb_4" opacity="0.1" d="M476 560L476 584" stroke="white" stroke-width="4.5" stroke-linecap="round" stroke-linejoin="round"/>
<path id="rc_4" opacity="0.1" d="M500 560L524 560" stroke="white" stroke-width="4.5" stroke-linecap="round" stroke-linejoin="round"/>
<path id="lc_4" opacity="0.1" d="M500 560H476" stroke="white" stroke-width="4.5" stroke-linecap="round" stroke-linejoin="round"/>
<path id="rct_4" opacity="0.1" d="M524 536L524 560" stroke="white" stroke-width="4.5" stroke-linecap="round" stroke-linejoin="round"/>
<path id="rtc_4" d="M524 536C524 549.255 513.255 560 500 560" stroke="white" stroke-width="4.5" stroke-linecap="round" stroke-linejoin="round"/>
<path id="ltc_4" opacity="0.1" d="M500 560C486.745 560 476 549.255 476 536" stroke="white" stroke-width="4.5" stroke-linecap="round" stroke-linejoin="round"/>
<path id="lct_4" opacity="0.1" d="M476 536L476 560" stroke="white" stroke-width="4.5" stroke-linecap="round" stroke-linejoin="round"/>
<path id="rt_4" opacity="0.1" d="M524 536L524 512" stroke="white" stroke-width="4.5" stroke-linecap="round" stroke-linejoin="round"/>
<path id="rtt_4" d="M500 512C513.255 512 524 522.745 524 536" stroke="white" stroke-width="4.5" stroke-linecap="round" stroke-linejoin="round"/>
<path id="t_5" opacity="0.1" d="M500 512V560" stroke="white" stroke-width="4.5" stroke-linecap="round" stroke-linejoin="round"/>
<path id="ltt_4" d="M476 536C476 522.745 486.745 512 500 512" stroke="white" stroke-width="4.5" stroke-linecap="round" stroke-linejoin="round"/>
<path id="lt_4" opacity="0.1" d="M476 536V512" stroke="white" stroke-width="4.5" stroke-linecap="round" stroke-linejoin="round"/>
<path id="tr_4" opacity="0.1" d="M500 512H524" stroke="white" stroke-width="4.5" stroke-linecap="round" stroke-linejoin="round"/>
<path id="tl_4" opacity="0.1" d="M476 512H500" stroke="white" stroke-width="4.5" stroke-linecap="round" stroke-linejoin="round"/>
</g>
</g>
<g id="chars_5">
<g id="char_5">
<path id="br_5" opacity="0.1" d="M572 608L596 608" stroke="white" stroke-width="4.5" stroke-linecap="round" stroke-linejoin="round"/>
<path id="bl_5" opacity="0.1" d="M548 608L572 608" stroke="white" stroke-width="4.5" stroke-linecap="round" stroke-linejoin="round"/>
<path id="rb_5" opacity="0.1" d="M596 584L596 608" stroke="white" stroke-width="4.5" stroke-linecap="round" stroke-linejoin="round"/>
<path id="rbb_5" opacity="0.1" d="M596.001 584C596.001 597.255 585.255 608 572 608" stroke="white" stroke-width="4.5" stroke-linecap="round" stroke-linejoin="round"/>
<path id="b_5" opacity="0.1" d="M572 560V608" stroke="white" stroke-width="4.5" stroke-linecap="round" stroke-linejoin="round"/>
<path id="lbb_5" opacity="0.1" d="M572 608C558.746 608 548 597.255 548 584" stroke="white" stroke-width="4.5" stroke-linecap="round" stroke-linejoin="round"/>
<path id="lb_5" d="M548 584V608" stroke="white" stroke-width="4.5" stroke-linecap="round" stroke-linejoin="round"/>
<path id="rcb_5" opacity="0.1" d="M596 560L596 584" stroke="white" stroke-width="4.5" stroke-linecap="round" stroke-linejoin="round"/>
<path id="rbc_5" opacity="0.1" d="M572 560C585.255 560 596.001 570.745 596.001 584" stroke="white" stroke-width="4.5" stroke-linecap="round" stroke-linejoin="round"/>
<path id="lbc_5" d="M548 584C548 570.745 558.746 560 572 560" stroke="white" stroke-width="4.5" stroke-linecap="round" stroke-linejoin="round"/>
<path id="lcb_5" opacity="0.1" d="M548 560L548 584" stroke="white" stroke-width="4.5" stroke-linecap="round" stroke-linejoin="round"/>
<path id="rc_5" opacity="0.1" d="M572 560L596 560" stroke="white" stroke-width="4.5" stroke-linecap="round" stroke-linejoin="round"/>
<path id="lc_5" opacity="0.1" d="M572 560H548" stroke="white" stroke-width="4.5" stroke-linecap="round" stroke-linejoin="round"/>
<path id="rct_5" opacity="0.1" d="M596 536L596 560" stroke="white" stroke-width="4.5" stroke-linecap="round" stroke-linejoin="round"/>
<path id="rtc_5" d="M596.001 536C596.001 549.255 585.255 560 572 560" stroke="white" stroke-width="4.5" stroke-linecap="round" stroke-linejoin="round"/>
<path id="ltc_5" opacity="0.1" d="M572 560C558.746 560 548 549.255 548 536" stroke="white" stroke-width="4.5" stroke-linecap="round" stroke-linejoin="round"/>
<path id="lct_5" opacity="0.1" d="M548 536L548 560" stroke="white" stroke-width="4.5" stroke-linecap="round" stroke-linejoin="round"/>
<path id="rt_5" d="M596.001 536L596 512" stroke="white" stroke-width="4.5" stroke-linecap="round" stroke-linejoin="round"/>
<path id="rtt_5" opacity="0.1" d="M572 512C585.255 512 596.001 522.745 596.001 536" stroke="white" stroke-width="4.5" stroke-linecap="round" stroke-linejoin="round"/>
<path id="t_6" opacity="0.1" d="M572 512V560" stroke="white" stroke-width="4.5" stroke-linecap="round" stroke-linejoin="round"/>
<path id="ltt_5" opacity="0.1" d="M548 536C548 522.745 558.746 512 572 512" stroke="white" stroke-width="4.5" stroke-linecap="round" stroke-linejoin="round"/>
<path id="lt_5" opacity="0.1" d="M548 536V512" stroke="white" stroke-width="4.5" stroke-linecap="round" stroke-linejoin="round"/>
<path id="tr_5" d="M572 512H596" stroke="white" stroke-width="4.5" stroke-linecap="round" stroke-linejoin="round"/>
<path id="tl_5" d="M548 512H572" stroke="white" stroke-width="4.5" stroke-linecap="round" stroke-linejoin="round"/>
</g>
</g>
</g>
<g id="frame">
<g id="chars_6">
<g id="char_6">
<path id="br_6" opacity="0.1" d="M668 608L692 608" stroke="white" stroke-width="4.5" stroke-linecap="round" stroke-linejoin="round"/>
<path id="bl_6" opacity="0.1" d="M644 608L668 608" stroke="white" stroke-width="4.5" stroke-linecap="round" stroke-linejoin="round"/>
<path id="rb_6" opacity="0.1" d="M692 584L692 608" stroke="white" stroke-width="4.5" stroke-linecap="round" stroke-linejoin="round"/>
<path id="rbb_6" d="M692.001 584C692.001 597.255 681.255 608 668 608" stroke="white" stroke-width="4.5" stroke-linecap="round" stroke-linejoin="round"/>
<path id="b_6" opacity="0.1" d="M668 560V608" stroke="white" stroke-width="4.5" stroke-linecap="round" stroke-linejoin="round"/>
<path id="lbb_6" d="M668 608C654.746 608 644 597.255 644 584" stroke="white" stroke-width="4.5" stroke-linecap="round" stroke-linejoin="round"/>
<path id="lb_6" opacity="0.1" d="M644 584V608" stroke="white" stroke-width="4.5" stroke-linecap="round" stroke-linejoin="round"/>
<path id="rcb_6" d="M692 560L692 584" stroke="white" stroke-width="4.5" stroke-linecap="round" stroke-linejoin="round"/>
<path id="rbc_6" opacity="0.1" d="M668 560C681.255 560 692.001 570.745 692.001 584" stroke="white" stroke-width="4.5" stroke-linecap="round" stroke-linejoin="round"/>
<path id="lbc_6" opacity="0.1" d="M644 584C644 570.745 654.746 560 668 560" stroke="white" stroke-width="4.5" stroke-linecap="round" stroke-linejoin="round"/>
<path id="lcb_6" d="M644 560L644 584" stroke="white" stroke-width="4.5" stroke-linecap="round" stroke-linejoin="round"/>
<path id="rc_6" d="M668 560L692 560" stroke="white" stroke-width="4.5" stroke-linecap="round" stroke-linejoin="round"/>
<path id="lc_6" opacity="0.1" d="M668 560H644" stroke="white" stroke-width="4.5" stroke-linecap="round" stroke-linejoin="round"/>
<path id="rct_6" opacity="0.1" d="M692 536L692 560" stroke="white" stroke-width="4.5" stroke-linecap="round" stroke-linejoin="round"/>
<path id="rtc_6" opacity="0.1" d="M692.001 536C692.001 549.255 681.255 560 668 560" stroke="white" stroke-width="4.5" stroke-linecap="round" stroke-linejoin="round"/>
<path id="ltc_6" opacity="0.1" d="M668 560C654.746 560 644 549.255 644 536" stroke="white" stroke-width="4.5" stroke-linecap="round" stroke-linejoin="round"/>
<path id="lct_6" d="M644 536L644 560" stroke="white" stroke-width="4.5" stroke-linecap="round" stroke-linejoin="round"/>
<path id="rt_6" opacity="0.1" d="M692.001 536L692 512" stroke="white" stroke-width="4.5" stroke-linecap="round" stroke-linejoin="round"/>
<path id="rtt_6" d="M668 512C681.255 512 692.001 522.745 692.001 536" stroke="white" stroke-width="4.5" stroke-linecap="round" stroke-linejoin="round"/>
<path id="t_7" opacity="0.1" d="M668 512V560" stroke="white" stroke-width="4.5" stroke-linecap="round" stroke-linejoin="round"/>
<path id="ltt_6" d="M644 536C644 522.745 654.746 512 668 512" stroke="white" stroke-width="4.5" stroke-linecap="round" stroke-linejoin="round"/>
<path id="lt_6" opacity="0.1" d="M644 536V512" stroke="white" stroke-width="4.5" stroke-linecap="round" stroke-linejoin="round"/>
<path id="tr_6" opacity="0.1" d="M668 512H692" stroke="white" stroke-width="4.5" stroke-linecap="round" stroke-linejoin="round"/>
<path id="tl_6" opacity="0.1" d="M644 512H668" stroke="white" stroke-width="4.5" stroke-linecap="round" stroke-linejoin="round"/>
</g>
</g>
<g id="chars_7">
<g id="char_7">
<path id="br_7" opacity="0.1" d="M740 608L764 608" stroke="white" stroke-width="4.5" stroke-linecap="round" stroke-linejoin="round"/>
<path id="bl_7" opacity="0.1" d="M716 608L740 608" stroke="white" stroke-width="4.5" stroke-linecap="round" stroke-linejoin="round"/>
<path id="rb_7" d="M764 584L764 608" stroke="white" stroke-width="4.5" stroke-linecap="round" stroke-linejoin="round"/>
<path id="rbb_7" opacity="0.1" d="M764.001 584C764.001 597.255 753.255 608 740 608" stroke="white" stroke-width="4.5" stroke-linecap="round" stroke-linejoin="round"/>
<path id="b_7" opacity="0.1" d="M740 560V608" stroke="white" stroke-width="4.5" stroke-linecap="round" stroke-linejoin="round"/>
<path id="lbb_7" opacity="0.1" d="M740 608C726.746 608 716 597.255 716 584" stroke="white" stroke-width="4.5" stroke-linecap="round" stroke-linejoin="round"/>
<path id="lb_7" d="M716 584V608" stroke="white" stroke-width="4.5" stroke-linecap="round" stroke-linejoin="round"/>
<path id="rcb_7" d="M764 560L764 584" stroke="white" stroke-width="4.5" stroke-linecap="round" stroke-linejoin="round"/>
<path id="rbc_7" opacity="0.1" d="M740 560C753.255 560 764.001 570.745 764.001 584" stroke="white" stroke-width="4.5" stroke-linecap="round" stroke-linejoin="round"/>
<path id="lbc_7" opacity="0.1" d="M716 584C716 570.745 726.746 560 740 560" stroke="white" stroke-width="4.5" stroke-linecap="round" stroke-linejoin="round"/>
<path id="lcb_7" d="M716 560L716 584" stroke="white" stroke-width="4.5" stroke-linecap="round" stroke-linejoin="round"/>
<path id="rc_7" opacity="0.1" d="M740 560L764 560" stroke="white" stroke-width="4.5" stroke-linecap="round" stroke-linejoin="round"/>
<path id="lc_7" opacity="0.1" d="M740 560H716" stroke="white" stroke-width="4.5" stroke-linecap="round" stroke-linejoin="round"/>
<path id="rct_7" d="M764 536L764 560" stroke="white" stroke-width="4.5" stroke-linecap="round" stroke-linejoin="round"/>
<path id="rtc_7" d="M764.001 536C764.001 549.255 753.255 560 740 560" stroke="white" stroke-width="4.5" stroke-linecap="round" stroke-linejoin="round"/>
<path id="ltc_7" d="M740 560C726.746 560 716 549.255 716 536" stroke="white" stroke-width="4.5" stroke-linecap="round" stroke-linejoin="round"/>
<path id="lct_7" d="M716 536L716 560" stroke="white" stroke-width="4.5" stroke-linecap="round" stroke-linejoin="round"/>
<path id="rt_7" d="M764.001 536L764 512" stroke="white" stroke-width="4.5" stroke-linecap="round" stroke-linejoin="round"/>
<path id="rtt_7" opacity="0.1" d="M740 512C753.255 512 764.001 522.745 764.001 536" stroke="white" stroke-width="4.5" stroke-linecap="round" stroke-linejoin="round"/>
<path id="t_8" opacity="0.1" d="M740 512V560" stroke="white" stroke-width="4.5" stroke-linecap="round" stroke-linejoin="round"/>
<path id="ltt_7" opacity="0.1" d="M716 536C716 522.745 726.746 512 740 512" stroke="white" stroke-width="4.5" stroke-linecap="round" stroke-linejoin="round"/>
<path id="lt_7" d="M716 536V512" stroke="white" stroke-width="4.5" stroke-linecap="round" stroke-linejoin="round"/>
<path id="tr_7" opacity="0.1" d="M740 512H764" stroke="white" stroke-width="4.5" stroke-linecap="round" stroke-linejoin="round"/>
<path id="tl_7" opacity="0.1" d="M716 512H740" stroke="white" stroke-width="4.5" stroke-linecap="round" stroke-linejoin="round"/>
</g>
</g>
</g>
<rect x="210" y="462" width="604.001" height="196" rx="26" stroke="white" stroke-width="4"/>
</g>
</g>
</g>
</svg>
