<svg width="1024" height="1024" viewBox="0 0 1024 1024" fill="none" xmlns="http://www.w3.org/2000/svg">
<g id="clock">
<g id="device">
<g id="body">
<rect id="body_2" x="210" y="350" width="604" height="196" rx="26" fill="black" stroke="white" stroke-width="4"/>
<g id="neelts">
<g id="c1">
<g id="n">
<path id="union" fill-rule="evenodd" clip-rule="evenodd" d="M260 395.5H263H266H269V398.5V401.5V404.5H266V401.5V398.5H263V401.5V404.5H260V401.5V398.5V395.5Z" fill="white"/>
</g>
</g>
<g id="c2">
<g id="e">
<path id="union_2" fill-rule="evenodd" clip-rule="evenodd" d="M275 395.5H272V398.5H275H278H281V395.5H278H275ZM281 401.5H278H275H272V404.5H275H278H281V401.5Z" fill="white"/>
</g>
</g>
<g id="c3">
<g id="e_2">
<path id="union_3" fill-rule="evenodd" clip-rule="evenodd" d="M287 395.5H284V398.5H287H290H293V395.5H290H287ZM293 401.5H290H287H284V404.5H287H290H293V401.5Z" fill="white"/>
</g>
</g>
<g id="c4">
<g id="l">
<path id="union_4" fill-rule="evenodd" clip-rule="evenodd" d="M296 395.5H299V398.5V401.5H302H305V404.5H302H299H296V401.5V398.5V395.5Z" fill="white"/>
</g>
</g>
<g id="c5">
<g id="t">
<path id="union_5" fill-rule="evenodd" clip-rule="evenodd" d="M306 395.5H309H312H315V398.5H312V401.5V404.5H309V401.5V398.5H306V395.5Z" fill="white"/>
</g>
</g>
<g id="c6">
<g id="s">
<path id="union_6" fill-rule="evenodd" clip-rule="evenodd" d="M322 395.5H319V398.5H322H325V395.5H322ZM319 401.5H322V404.5H319H316V401.5H319Z" fill="white"/>
</g>
</g>
</g>
<g id="buttons">
<rect id="outline" opacity="0.5" x="634" y="378" width="140" height="44" rx="22" fill="black" stroke="white" stroke-width="4"/>
<mask id="mask0_1494_19759" style="mask-type:alpha" maskUnits="userSpaceOnUse" x="636" y="380" width="136" height="40">
<rect id="inner-mask" x="636" y="380" width="136" height="40" rx="20" fill="black"/>
</mask>
<g mask="url(#mask0_1494_19759)">
<rect id="inner" opacity="0.25" x="635" y="387" width="138" height="42" rx="21" fill="black" stroke="white" stroke-width="2"/>
</g>
<mask id="mask1_1494_19759" style="mask-type:alpha" maskUnits="userSpaceOnUse" x="636" y="370" width="136" height="50">
<rect id="mask" x="636" y="370" width="136" height="50" rx="20" fill="black"/>
</mask>
<g mask="url(#mask1_1494_19759)">
<g id="actions">
<g id="right">
<g id="body_3">
<mask id="path-12-outside-1_1494_19759" maskUnits="userSpaceOnUse" x="705" y="382" width="65" height="36" fill="black">
<rect fill="white" x="705" y="382" width="65" height="36"/>
<path fill-rule="evenodd" clip-rule="evenodd" d="M752 384H707V394V400V416H752C760.837 416 768 408.837 768 400V394H766.837C764.463 388.136 758.715 384 752 384Z"/>
</mask>
<path fill-rule="evenodd" clip-rule="evenodd" d="M752 384H707V394V400V416H752C760.837 416 768 408.837 768 400V394H766.837C764.463 388.136 758.715 384 752 384Z" fill="black"/>
<path d="M707 384V382H705V384H707ZM707 416H705V418H707V416ZM768 394H770V392H768V394ZM766.837 394L764.983 394.75L765.489 396H766.837V394ZM707 386H752V382H707V386ZM709 394V384H705V394H709ZM709 400V394H705V400H709ZM709 416V400H705V416H709ZM752 414H707V418H752V414ZM766 400C766 407.732 759.732 414 752 414V418C761.941 418 770 409.941 770 400H766ZM766 394V400H770V394H766ZM766.837 396H768V392H766.837V396ZM752 386C757.872 386 762.905 389.616 764.983 394.75L768.691 393.25C766.022 386.657 759.557 382 752 382V386Z" fill="white" mask="url(#path-12-outside-1_1494_19759)"/>
</g>
<path id="front" d="M707 375H706V376V408V409H707H752C761.389 409 769 401.389 769 392C769 382.611 761.389 375 752 375H707Z" fill="black" stroke="white" stroke-width="2"/>
</g>
<g id="left">
<g id="body_4">
<mask id="path-15-outside-2_1494_19759" maskUnits="userSpaceOnUse" x="638" y="382" width="65" height="36" fill="black">
<rect fill="white" x="638" y="382" width="65" height="36"/>
<path fill-rule="evenodd" clip-rule="evenodd" d="M640 400V394H641.163C643.537 388.136 649.285 384 656 384H701V394V400V416H656C647.163 416 640 408.837 640 400Z"/>
</mask>
<path fill-rule="evenodd" clip-rule="evenodd" d="M640 400V394H641.163C643.537 388.136 649.285 384 656 384H701V394V400V416H656C647.163 416 640 408.837 640 400Z" fill="black"/>
<path d="M640 394V392H638V394H640ZM641.163 394V396H642.511L643.017 394.75L641.163 394ZM701 384H703V382H701V384ZM701 416V418H703V416H701ZM642 400V394H638V400H642ZM640 396H641.163V392H640V396ZM643.017 394.75C645.095 389.616 650.128 386 656 386V382C648.443 382 641.978 386.657 639.309 393.25L643.017 394.75ZM656 386H701V382H656V386ZM699 384V394H703V384H699ZM699 394V400H703V394H699ZM699 400V416H703V400H699ZM701 414H656V418H701V414ZM656 414C648.268 414 642 407.732 642 400H638C638 409.941 646.059 418 656 418V414Z" fill="white" mask="url(#path-15-outside-2_1494_19759)"/>
</g>
<path id="front_2" d="M702 376V375H701H656C646.611 375 639 382.611 639 392C639 401.389 646.611 409 656 409H701H702V408V376Z" fill="black" stroke="white" stroke-width="2"/>
</g>
</g>
</g>
</g>
</g>
<g id="display">
<rect x="210" y="446" width="604.001" height="196" rx="26" fill="black"/>
<g id="time">
<g id="chars">
<g id="char">
<path id="br" d="M284 592L308 592" stroke="white" stroke-width="4.5" stroke-linecap="round" stroke-linejoin="round"/>
<path id="bl" d="M260 592L284 592" stroke="white" stroke-width="4.5" stroke-linecap="round" stroke-linejoin="round"/>
<path id="rb" opacity="0.1" d="M308 568L308 592" stroke="white" stroke-width="4.5" stroke-linecap="round" stroke-linejoin="round"/>
<path id="rbb" opacity="0.1" d="M308 568C308 581.255 297.255 592 284 592" stroke="white" stroke-width="4.5" stroke-linecap="round" stroke-linejoin="round"/>
<path id="b" d="M284 544V592" stroke="white" stroke-width="4.5" stroke-linecap="round" stroke-linejoin="round"/>
<path id="lbb" opacity="0.1" d="M284 592C270.745 592 260 581.255 260 568" stroke="white" stroke-width="4.5" stroke-linecap="round" stroke-linejoin="round"/>
<path id="lb" opacity="0.1" d="M260 568V592" stroke="white" stroke-width="4.5" stroke-linecap="round" stroke-linejoin="round"/>
<path id="rcb" opacity="0.1" d="M308 544L308 568" stroke="white" stroke-width="4.5" stroke-linecap="round" stroke-linejoin="round"/>
<path id="rbc" opacity="0.1" d="M284 544C297.255 544 308 554.745 308 568" stroke="white" stroke-width="4.5" stroke-linecap="round" stroke-linejoin="round"/>
<path id="lbc" opacity="0.1" d="M260 568C260 554.745 270.745 544 284 544" stroke="white" stroke-width="4.5" stroke-linecap="round" stroke-linejoin="round"/>
<path id="lcb" opacity="0.1" d="M260 544L260 568" stroke="white" stroke-width="4.5" stroke-linecap="round" stroke-linejoin="round"/>
<path id="rc" opacity="0.1" d="M284 544L308 544" stroke="white" stroke-width="4.5" stroke-linecap="round" stroke-linejoin="round"/>
<path id="lc" opacity="0.1" d="M284 544H260" stroke="white" stroke-width="4.5" stroke-linecap="round" stroke-linejoin="round"/>
<path id="rct" opacity="0.1" d="M308 520L308 544" stroke="white" stroke-width="4.5" stroke-linecap="round" stroke-linejoin="round"/>
<path id="rtc" opacity="0.1" d="M308 520C308 533.255 297.255 544 284 544" stroke="white" stroke-width="4.5" stroke-linecap="round" stroke-linejoin="round"/>
<path id="ltc" opacity="0.1" d="M284 544C270.745 544 260 533.255 260 520" stroke="white" stroke-width="4.5" stroke-linecap="round" stroke-linejoin="round"/>
<path id="lct" opacity="0.1" d="M260 520L260 544" stroke="white" stroke-width="4.5" stroke-linecap="round" stroke-linejoin="round"/>
<path id="rt" opacity="0.1" d="M308 520L308 496" stroke="white" stroke-width="4.5" stroke-linecap="round" stroke-linejoin="round"/>
<path id="rtt" opacity="0.1" d="M284 496C297.255 496 308 506.745 308 520" stroke="white" stroke-width="4.5" stroke-linecap="round" stroke-linejoin="round"/>
<path id="t_2" d="M284 496V544" stroke="white" stroke-width="4.5" stroke-linecap="round" stroke-linejoin="round"/>
<path id="ltt" opacity="0.1" d="M260 520C260 506.745 270.745 496 284 496" stroke="white" stroke-width="4.5" stroke-linecap="round" stroke-linejoin="round"/>
<path id="lt" opacity="0.1" d="M260 520V496" stroke="white" stroke-width="4.5" stroke-linecap="round" stroke-linejoin="round"/>
<path id="tr" opacity="0.1" d="M284 496H308" stroke="white" stroke-width="4.5" stroke-linecap="round" stroke-linejoin="round"/>
<path id="tl" d="M260 496H284" stroke="white" stroke-width="4.5" stroke-linecap="round" stroke-linejoin="round"/>
</g>
</g>
<g id="chars_2">
<g id="char_2">
<path id="br_2" opacity="0.1" d="M356 592L380 592" stroke="white" stroke-width="4.5" stroke-linecap="round" stroke-linejoin="round"/>
<path id="bl_2" opacity="0.1" d="M332 592L356 592" stroke="white" stroke-width="4.5" stroke-linecap="round" stroke-linejoin="round"/>
<path id="rb_2" opacity="0.1" d="M380 568L380 592" stroke="white" stroke-width="4.5" stroke-linecap="round" stroke-linejoin="round"/>
<path id="rbb_2" d="M380 568C380 581.255 369.255 592 356 592" stroke="white" stroke-width="4.5" stroke-linecap="round" stroke-linejoin="round"/>
<path id="b_2" opacity="0.1" d="M356 544V592" stroke="white" stroke-width="4.5" stroke-linecap="round" stroke-linejoin="round"/>
<path id="lbb_2" d="M356 592C342.745 592 332 581.255 332 568" stroke="white" stroke-width="4.5" stroke-linecap="round" stroke-linejoin="round"/>
<path id="lb_2" opacity="0.1" d="M332 568V592" stroke="white" stroke-width="4.5" stroke-linecap="round" stroke-linejoin="round"/>
<path id="rcb_2" opacity="0.1" d="M380 544L380 568" stroke="white" stroke-width="4.5" stroke-linecap="round" stroke-linejoin="round"/>
<path id="rbc_2" d="M356 544C369.255 544 380 554.745 380 568" stroke="white" stroke-width="4.5" stroke-linecap="round" stroke-linejoin="round"/>
<path id="lbc_2" opacity="0.1" d="M332 568C332 554.745 342.745 544 356 544" stroke="white" stroke-width="4.5" stroke-linecap="round" stroke-linejoin="round"/>
<path id="lcb_2" opacity="0.1" d="M332 544L332 568" stroke="white" stroke-width="4.5" stroke-linecap="round" stroke-linejoin="round"/>
<path id="rc_2" opacity="0.1" d="M356 544L380 544" stroke="white" stroke-width="4.5" stroke-linecap="round" stroke-linejoin="round"/>
<path id="lc_2" opacity="0.1" d="M356 544H332" stroke="white" stroke-width="4.5" stroke-linecap="round" stroke-linejoin="round"/>
<path id="rct_2" opacity="0.1" d="M380 520L380 544" stroke="white" stroke-width="4.5" stroke-linecap="round" stroke-linejoin="round"/>
<path id="rtc_2" d="M380 520C380 533.255 369.255 544 356 544" stroke="white" stroke-width="4.5" stroke-linecap="round" stroke-linejoin="round"/>
<path id="ltc_2" opacity="0.1" d="M356 544C342.745 544 332 533.255 332 520" stroke="white" stroke-width="4.5" stroke-linecap="round" stroke-linejoin="round"/>
<path id="lct_2" opacity="0.1" d="M332 520L332 544" stroke="white" stroke-width="4.5" stroke-linecap="round" stroke-linejoin="round"/>
<path id="rt_2" opacity="0.1" d="M380 520L380 496" stroke="white" stroke-width="4.5" stroke-linecap="round" stroke-linejoin="round"/>
<path id="rtt_2" d="M356 496C369.255 496 380 506.745 380 520" stroke="white" stroke-width="4.5" stroke-linecap="round" stroke-linejoin="round"/>
<path id="t_3" opacity="0.1" d="M356 496V544" stroke="white" stroke-width="4.5" stroke-linecap="round" stroke-linejoin="round"/>
<path id="ltt_2" d="M332 520C332 506.745 342.745 496 356 496" stroke="white" stroke-width="4.5" stroke-linecap="round" stroke-linejoin="round"/>
<path id="lt_2" opacity="0.1" d="M332 520V496" stroke="white" stroke-width="4.5" stroke-linecap="round" stroke-linejoin="round"/>
<path id="tr_2" opacity="0.1" d="M356 496H380" stroke="white" stroke-width="4.5" stroke-linecap="round" stroke-linejoin="round"/>
<path id="tl_2" opacity="0.1" d="M332 496H356" stroke="white" stroke-width="4.5" stroke-linecap="round" stroke-linejoin="round"/>
</g>
</g>
<g id="chars_3">
<g id="char_3">
<path id="br_3" opacity="0.1" d="M428 592L452 592" stroke="white" stroke-width="4.5" stroke-linecap="round" stroke-linejoin="round"/>
<path id="bl_3" opacity="0.1" d="M404 592L428 592" stroke="white" stroke-width="4.5" stroke-linecap="round" stroke-linejoin="round"/>
<path id="rb_3" opacity="0.1" d="M452 568L452 592" stroke="white" stroke-width="4.5" stroke-linecap="round" stroke-linejoin="round"/>
<path id="rbb_3" d="M452 568C452 581.255 441.255 592 428 592" stroke="white" stroke-width="4.5" stroke-linecap="round" stroke-linejoin="round"/>
<path id="b_3" opacity="0.1" d="M428 544V592" stroke="white" stroke-width="4.5" stroke-linecap="round" stroke-linejoin="round"/>
<path id="lbb_3" d="M428 592C414.745 592 404 581.255 404 568" stroke="white" stroke-width="4.5" stroke-linecap="round" stroke-linejoin="round"/>
<path id="lb_3" opacity="0.1" d="M404 568V592" stroke="white" stroke-width="4.5" stroke-linecap="round" stroke-linejoin="round"/>
<path id="rcb_3" opacity="0.1" d="M452 544L452 568" stroke="white" stroke-width="4.5" stroke-linecap="round" stroke-linejoin="round"/>
<path id="rbc_3" d="M428 544C441.255 544 452 554.745 452 568" stroke="white" stroke-width="4.5" stroke-linecap="round" stroke-linejoin="round"/>
<path id="lbc_3" d="M404 568C404 554.745 414.745 544 428 544" stroke="white" stroke-width="4.5" stroke-linecap="round" stroke-linejoin="round"/>
<path id="lcb_3" opacity="0.1" d="M404 544L404 568" stroke="white" stroke-width="4.5" stroke-linecap="round" stroke-linejoin="round"/>
<path id="rc_3" opacity="0.1" d="M428 544L452 544" stroke="white" stroke-width="4.5" stroke-linecap="round" stroke-linejoin="round"/>
<path id="lc_3" opacity="0.1" d="M428 544H404" stroke="white" stroke-width="4.5" stroke-linecap="round" stroke-linejoin="round"/>
<path id="rct_3" opacity="0.1" d="M452 520L452 544" stroke="white" stroke-width="4.5" stroke-linecap="round" stroke-linejoin="round"/>
<path id="rtc_3" opacity="0.1" d="M452 520C452 533.255 441.255 544 428 544" stroke="white" stroke-width="4.5" stroke-linecap="round" stroke-linejoin="round"/>
<path id="ltc_3" opacity="0.1" d="M428 544C414.745 544 404 533.255 404 520" stroke="white" stroke-width="4.5" stroke-linecap="round" stroke-linejoin="round"/>
<path id="lct_3" opacity="0.1" d="M404 520L404 544" stroke="white" stroke-width="4.5" stroke-linecap="round" stroke-linejoin="round"/>
<path id="rt_3" opacity="0.1" d="M452 520L452 496" stroke="white" stroke-width="4.5" stroke-linecap="round" stroke-linejoin="round"/>
<path id="rtt_3" opacity="0.1" d="M428 496C441.255 496 452 506.745 452 520" stroke="white" stroke-width="4.5" stroke-linecap="round" stroke-linejoin="round"/>
<path id="t_4" opacity="0.1" d="M428 496V544" stroke="white" stroke-width="4.5" stroke-linecap="round" stroke-linejoin="round"/>
<path id="ltt_3" opacity="0.1" d="M404 520C404 506.745 414.745 496 428 496" stroke="white" stroke-width="4.5" stroke-linecap="round" stroke-linejoin="round"/>
<path id="lt_3" opacity="0.1" d="M404 520V496" stroke="white" stroke-width="4.5" stroke-linecap="round" stroke-linejoin="round"/>
<path id="tr_3" opacity="0.1" d="M428 496H452" stroke="white" stroke-width="4.5" stroke-linecap="round" stroke-linejoin="round"/>
<path id="tl_3" opacity="0.1" d="M404 496H428" stroke="white" stroke-width="4.5" stroke-linecap="round" stroke-linejoin="round"/>
</g>
</g>
<g id="chars_4">
<g id="char_4">
<path id="br_4" opacity="0.1" d="M500 592L524 592" stroke="white" stroke-width="4.5" stroke-linecap="round" stroke-linejoin="round"/>
<path id="bl_4" opacity="0.1" d="M476 592L500 592" stroke="white" stroke-width="4.5" stroke-linecap="round" stroke-linejoin="round"/>
<path id="rb_4" opacity="0.1" d="M524 568L524 592" stroke="white" stroke-width="4.5" stroke-linecap="round" stroke-linejoin="round"/>
<path id="rbb_4" d="M524 568C524 581.255 513.255 592 500 592" stroke="white" stroke-width="4.5" stroke-linecap="round" stroke-linejoin="round"/>
<path id="b_4" opacity="0.1" d="M500 544V592" stroke="white" stroke-width="4.5" stroke-linecap="round" stroke-linejoin="round"/>
<path id="lbb_4" d="M500 592C486.745 592 476 581.255 476 568" stroke="white" stroke-width="4.5" stroke-linecap="round" stroke-linejoin="round"/>
<path id="lb_4" opacity="0.1" d="M476 568V592" stroke="white" stroke-width="4.5" stroke-linecap="round" stroke-linejoin="round"/>
<path id="rcb_4" opacity="0.1" d="M524 544L524 568" stroke="white" stroke-width="4.5" stroke-linecap="round" stroke-linejoin="round"/>
<path id="rbc_4" d="M500 544C513.255 544 524 554.745 524 568" stroke="white" stroke-width="4.5" stroke-linecap="round" stroke-linejoin="round"/>
<path id="lbc_4" opacity="0.1" d="M476 568C476 554.745 486.745 544 500 544" stroke="white" stroke-width="4.5" stroke-linecap="round" stroke-linejoin="round"/>
<path id="lcb_4" opacity="0.1" d="M476 544L476 568" stroke="white" stroke-width="4.5" stroke-linecap="round" stroke-linejoin="round"/>
<path id="rc_4" opacity="0.1" d="M500 544L524 544" stroke="white" stroke-width="4.5" stroke-linecap="round" stroke-linejoin="round"/>
<path id="lc_4" opacity="0.1" d="M500 544H476" stroke="white" stroke-width="4.5" stroke-linecap="round" stroke-linejoin="round"/>
<path id="rct_4" opacity="0.1" d="M524 520L524 544" stroke="white" stroke-width="4.5" stroke-linecap="round" stroke-linejoin="round"/>
<path id="rtc_4" d="M524 520C524 533.255 513.255 544 500 544" stroke="white" stroke-width="4.5" stroke-linecap="round" stroke-linejoin="round"/>
<path id="ltc_4" opacity="0.1" d="M500 544C486.745 544 476 533.255 476 520" stroke="white" stroke-width="4.5" stroke-linecap="round" stroke-linejoin="round"/>
<path id="lct_4" opacity="0.1" d="M476 520L476 544" stroke="white" stroke-width="4.5" stroke-linecap="round" stroke-linejoin="round"/>
<path id="rt_4" opacity="0.1" d="M524 520L524 496" stroke="white" stroke-width="4.5" stroke-linecap="round" stroke-linejoin="round"/>
<path id="rtt_4" d="M500 496C513.255 496 524 506.745 524 520" stroke="white" stroke-width="4.5" stroke-linecap="round" stroke-linejoin="round"/>
<path id="t_5" opacity="0.1" d="M500 496V544" stroke="white" stroke-width="4.5" stroke-linecap="round" stroke-linejoin="round"/>
<path id="ltt_4" d="M476 520C476 506.745 486.745 496 500 496" stroke="white" stroke-width="4.5" stroke-linecap="round" stroke-linejoin="round"/>
<path id="lt_4" opacity="0.1" d="M476 520V496" stroke="white" stroke-width="4.5" stroke-linecap="round" stroke-linejoin="round"/>
<path id="tr_4" opacity="0.1" d="M500 496H524" stroke="white" stroke-width="4.5" stroke-linecap="round" stroke-linejoin="round"/>
<path id="tl_4" opacity="0.1" d="M476 496H500" stroke="white" stroke-width="4.5" stroke-linecap="round" stroke-linejoin="round"/>
</g>
</g>
<g id="chars_5">
<g id="char_5">
<path id="br_5" opacity="0.1" d="M572 592L596 592" stroke="white" stroke-width="4.5" stroke-linecap="round" stroke-linejoin="round"/>
<path id="bl_5" opacity="0.1" d="M548 592L572 592" stroke="white" stroke-width="4.5" stroke-linecap="round" stroke-linejoin="round"/>
<path id="rb_5" opacity="0.1" d="M596 568L596 592" stroke="white" stroke-width="4.5" stroke-linecap="round" stroke-linejoin="round"/>
<path id="rbb_5" opacity="0.1" d="M596.001 568C596.001 581.255 585.255 592 572 592" stroke="white" stroke-width="4.5" stroke-linecap="round" stroke-linejoin="round"/>
<path id="b_5" opacity="0.1" d="M572 544V592" stroke="white" stroke-width="4.5" stroke-linecap="round" stroke-linejoin="round"/>
<path id="lbb_5" opacity="0.1" d="M572 592C558.746 592 548 581.255 548 568" stroke="white" stroke-width="4.5" stroke-linecap="round" stroke-linejoin="round"/>
<path id="lb_5" d="M548 568V592" stroke="white" stroke-width="4.5" stroke-linecap="round" stroke-linejoin="round"/>
<path id="rcb_5" opacity="0.1" d="M596 544L596 568" stroke="white" stroke-width="4.5" stroke-linecap="round" stroke-linejoin="round"/>
<path id="rbc_5" opacity="0.1" d="M572 544C585.255 544 596.001 554.745 596.001 568" stroke="white" stroke-width="4.5" stroke-linecap="round" stroke-linejoin="round"/>
<path id="lbc_5" d="M548 568C548 554.745 558.746 544 572 544" stroke="white" stroke-width="4.5" stroke-linecap="round" stroke-linejoin="round"/>
<path id="lcb_5" opacity="0.1" d="M548 544L548 568" stroke="white" stroke-width="4.5" stroke-linecap="round" stroke-linejoin="round"/>
<path id="rc_5" opacity="0.1" d="M572 544L596 544" stroke="white" stroke-width="4.5" stroke-linecap="round" stroke-linejoin="round"/>
<path id="lc_5" opacity="0.1" d="M572 544H548" stroke="white" stroke-width="4.5" stroke-linecap="round" stroke-linejoin="round"/>
<path id="rct_5" opacity="0.1" d="M596 520L596 544" stroke="white" stroke-width="4.5" stroke-linecap="round" stroke-linejoin="round"/>
<path id="rtc_5" d="M596.001 520C596.001 533.255 585.255 544 572 544" stroke="white" stroke-width="4.5" stroke-linecap="round" stroke-linejoin="round"/>
<path id="ltc_5" opacity="0.1" d="M572 544C558.746 544 548 533.255 548 520" stroke="white" stroke-width="4.5" stroke-linecap="round" stroke-linejoin="round"/>
<path id="lct_5" opacity="0.1" d="M548 520L548 544" stroke="white" stroke-width="4.5" stroke-linecap="round" stroke-linejoin="round"/>
<path id="rt_5" d="M596.001 520L596 496" stroke="white" stroke-width="4.5" stroke-linecap="round" stroke-linejoin="round"/>
<path id="rtt_5" opacity="0.1" d="M572 496C585.255 496 596.001 506.745 596.001 520" stroke="white" stroke-width="4.5" stroke-linecap="round" stroke-linejoin="round"/>
<path id="t_6" opacity="0.1" d="M572 496V544" stroke="white" stroke-width="4.5" stroke-linecap="round" stroke-linejoin="round"/>
<path id="ltt_5" opacity="0.1" d="M548 520C548 506.745 558.746 496 572 496" stroke="white" stroke-width="4.5" stroke-linecap="round" stroke-linejoin="round"/>
<path id="lt_5" opacity="0.1" d="M548 520V496" stroke="white" stroke-width="4.5" stroke-linecap="round" stroke-linejoin="round"/>
<path id="tr_5" d="M572 496H596" stroke="white" stroke-width="4.5" stroke-linecap="round" stroke-linejoin="round"/>
<path id="tl_5" d="M548 496H572" stroke="white" stroke-width="4.5" stroke-linecap="round" stroke-linejoin="round"/>
</g>
</g>
</g>
<g id="frame">
<g id="chars_6">
<g id="char_6">
<path id="br_6" opacity="0.1" d="M668 592L692 592" stroke="white" stroke-width="4.5" stroke-linecap="round" stroke-linejoin="round"/>
<path id="bl_6" opacity="0.1" d="M644 592L668 592" stroke="white" stroke-width="4.5" stroke-linecap="round" stroke-linejoin="round"/>
<path id="rb_6" opacity="0.1" d="M692 568L692 592" stroke="white" stroke-width="4.5" stroke-linecap="round" stroke-linejoin="round"/>
<path id="rbb_6" d="M692.001 568C692.001 581.255 681.255 592 668 592" stroke="white" stroke-width="4.5" stroke-linecap="round" stroke-linejoin="round"/>
<path id="b_6" opacity="0.1" d="M668 544V592" stroke="white" stroke-width="4.5" stroke-linecap="round" stroke-linejoin="round"/>
<path id="lbb_6" d="M668 592C654.746 592 644 581.255 644 568" stroke="white" stroke-width="4.5" stroke-linecap="round" stroke-linejoin="round"/>
<path id="lb_6" opacity="0.1" d="M644 568V592" stroke="white" stroke-width="4.5" stroke-linecap="round" stroke-linejoin="round"/>
<path id="rcb_6" d="M692 544L692 568" stroke="white" stroke-width="4.5" stroke-linecap="round" stroke-linejoin="round"/>
<path id="rbc_6" opacity="0.1" d="M668 544C681.255 544 692.001 554.745 692.001 568" stroke="white" stroke-width="4.5" stroke-linecap="round" stroke-linejoin="round"/>
<path id="lbc_6" opacity="0.1" d="M644 568C644 554.745 654.746 544 668 544" stroke="white" stroke-width="4.5" stroke-linecap="round" stroke-linejoin="round"/>
<path id="lcb_6" d="M644 544L644 568" stroke="white" stroke-width="4.5" stroke-linecap="round" stroke-linejoin="round"/>
<path id="rc_6" d="M668 544L692 544" stroke="white" stroke-width="4.5" stroke-linecap="round" stroke-linejoin="round"/>
<path id="lc_6" opacity="0.1" d="M668 544H644" stroke="white" stroke-width="4.5" stroke-linecap="round" stroke-linejoin="round"/>
<path id="rct_6" opacity="0.1" d="M692 520L692 544" stroke="white" stroke-width="4.5" stroke-linecap="round" stroke-linejoin="round"/>
<path id="rtc_6" opacity="0.1" d="M692.001 520C692.001 533.255 681.255 544 668 544" stroke="white" stroke-width="4.5" stroke-linecap="round" stroke-linejoin="round"/>
<path id="ltc_6" opacity="0.1" d="M668 544C654.746 544 644 533.255 644 520" stroke="white" stroke-width="4.5" stroke-linecap="round" stroke-linejoin="round"/>
<path id="lct_6" d="M644 520L644 544" stroke="white" stroke-width="4.5" stroke-linecap="round" stroke-linejoin="round"/>
<path id="rt_6" opacity="0.1" d="M692.001 520L692 496" stroke="white" stroke-width="4.5" stroke-linecap="round" stroke-linejoin="round"/>
<path id="rtt_6" d="M668 496C681.255 496 692.001 506.745 692.001 520" stroke="white" stroke-width="4.5" stroke-linecap="round" stroke-linejoin="round"/>
<path id="t_7" opacity="0.1" d="M668 496V544" stroke="white" stroke-width="4.5" stroke-linecap="round" stroke-linejoin="round"/>
<path id="ltt_6" d="M644 520C644 506.745 654.746 496 668 496" stroke="white" stroke-width="4.5" stroke-linecap="round" stroke-linejoin="round"/>
<path id="lt_6" opacity="0.1" d="M644 520V496" stroke="white" stroke-width="4.5" stroke-linecap="round" stroke-linejoin="round"/>
<path id="tr_6" opacity="0.1" d="M668 496H692" stroke="white" stroke-width="4.5" stroke-linecap="round" stroke-linejoin="round"/>
<path id="tl_6" opacity="0.1" d="M644 496H668" stroke="white" stroke-width="4.5" stroke-linecap="round" stroke-linejoin="round"/>
</g>
</g>
<g id="chars_7">
<g id="char_7">
<path id="br_7" opacity="0.1" d="M740 592L764 592" stroke="white" stroke-width="4.5" stroke-linecap="round" stroke-linejoin="round"/>
<path id="bl_7" opacity="0.1" d="M716 592L740 592" stroke="white" stroke-width="4.5" stroke-linecap="round" stroke-linejoin="round"/>
<path id="rb_7" d="M764 568L764 592" stroke="white" stroke-width="4.5" stroke-linecap="round" stroke-linejoin="round"/>
<path id="rbb_7" opacity="0.1" d="M764.001 568C764.001 581.255 753.255 592 740 592" stroke="white" stroke-width="4.5" stroke-linecap="round" stroke-linejoin="round"/>
<path id="b_7" opacity="0.1" d="M740 544V592" stroke="white" stroke-width="4.5" stroke-linecap="round" stroke-linejoin="round"/>
<path id="lbb_7" opacity="0.1" d="M740 592C726.746 592 716 581.255 716 568" stroke="white" stroke-width="4.5" stroke-linecap="round" stroke-linejoin="round"/>
<path id="lb_7" d="M716 568V592" stroke="white" stroke-width="4.5" stroke-linecap="round" stroke-linejoin="round"/>
<path id="rcb_7" d="M764 544L764 568" stroke="white" stroke-width="4.5" stroke-linecap="round" stroke-linejoin="round"/>
<path id="rbc_7" opacity="0.1" d="M740 544C753.255 544 764.001 554.745 764.001 568" stroke="white" stroke-width="4.5" stroke-linecap="round" stroke-linejoin="round"/>
<path id="lbc_7" opacity="0.1" d="M716 568C716 554.745 726.746 544 740 544" stroke="white" stroke-width="4.5" stroke-linecap="round" stroke-linejoin="round"/>
<path id="lcb_7" d="M716 544L716 568" stroke="white" stroke-width="4.5" stroke-linecap="round" stroke-linejoin="round"/>
<path id="rc_7" opacity="0.1" d="M740 544L764 544" stroke="white" stroke-width="4.5" stroke-linecap="round" stroke-linejoin="round"/>
<path id="lc_7" opacity="0.1" d="M740 544H716" stroke="white" stroke-width="4.5" stroke-linecap="round" stroke-linejoin="round"/>
<path id="rct_7" d="M764 520L764 544" stroke="white" stroke-width="4.5" stroke-linecap="round" stroke-linejoin="round"/>
<path id="rtc_7" d="M764.001 520C764.001 533.255 753.255 544 740 544" stroke="white" stroke-width="4.5" stroke-linecap="round" stroke-linejoin="round"/>
<path id="ltc_7" d="M740 544C726.746 544 716 533.255 716 520" stroke="white" stroke-width="4.5" stroke-linecap="round" stroke-linejoin="round"/>
<path id="lct_7" d="M716 520L716 544" stroke="white" stroke-width="4.5" stroke-linecap="round" stroke-linejoin="round"/>
<path id="rt_7" d="M764.001 520L764 496" stroke="white" stroke-width="4.5" stroke-linecap="round" stroke-linejoin="round"/>
<path id="rtt_7" opacity="0.1" d="M740 496C753.255 496 764.001 506.745 764.001 520" stroke="white" stroke-width="4.5" stroke-linecap="round" stroke-linejoin="round"/>
<path id="t_8" opacity="0.1" d="M740 496V544" stroke="white" stroke-width="4.5" stroke-linecap="round" stroke-linejoin="round"/>
<path id="ltt_7" opacity="0.1" d="M716 520C716 506.745 726.746 496 740 496" stroke="white" stroke-width="4.5" stroke-linecap="round" stroke-linejoin="round"/>
<path id="lt_7" d="M716 520V496" stroke="white" stroke-width="4.5" stroke-linecap="round" stroke-linejoin="round"/>
<path id="tr_7" opacity="0.1" d="M740 496H764" stroke="white" stroke-width="4.5" stroke-linecap="round" stroke-linejoin="round"/>
<path id="tl_7" opacity="0.1" d="M716 496H740" stroke="white" stroke-width="4.5" stroke-linecap="round" stroke-linejoin="round"/>
</g>
</g>
</g>
<rect x="210" y="446" width="604.001" height="196" rx="26" stroke="white" stroke-width="4"/>
</g>
</g>
</g>
</svg>
