<svg width="344" height="344" viewBox="0 0 344 344" fill="none" xmlns="http://www.w3.org/2000/svg">
<rect x="62" y="26" width="220" height="196" rx="26" fill="black" stroke="white" stroke-width="4"/>
<path fill-rule="evenodd" clip-rule="evenodd" d="M112 71.5H115H118H121V74.5V77.5V80.5H118V77.5V74.5H115V77.5V80.5H112V77.5V74.5V71.5Z" fill="white"/>
<path fill-rule="evenodd" clip-rule="evenodd" d="M127 71.5H124V74.5H127H130H133V71.5H130H127ZM133 77.5H130H127H124V80.5H127H130H133V77.5Z" fill="white"/>
<path fill-rule="evenodd" clip-rule="evenodd" d="M139 71.5H136V74.5H139H142H145V71.5H142H139ZM145 77.5H142H139H136V80.5H139H142H145V77.5Z" fill="white"/>
<path fill-rule="evenodd" clip-rule="evenodd" d="M148 71.5H151V74.5V77.5H154H157V80.5H154H151H148V77.5V74.5V71.5Z" fill="white"/>
<path fill-rule="evenodd" clip-rule="evenodd" d="M158 71.5H161H164H167V74.5H164V77.5V80.5H161V77.5V74.5H158V71.5Z" fill="white"/>
<path fill-rule="evenodd" clip-rule="evenodd" d="M174 71.5H171V74.5H174H177V71.5H174ZM171 77.5H174V80.5H171H168V77.5H171Z" fill="white"/>
<rect opacity="0.5" x="102" y="54" width="140" height="44" rx="22" fill="black" stroke="white" stroke-width="4"/>
<mask id="mask0_1541_21213" style="mask-type:alpha" maskUnits="userSpaceOnUse" x="104" y="56" width="136" height="40">
<rect x="104" y="56" width="136" height="40" rx="20" fill="black"/>
</mask>
<g mask="url(#mask0_1541_21213)">
<rect opacity="0.25" x="103" y="63" width="138" height="42" rx="21" fill="black" stroke="white" stroke-width="2"/>
</g>
<mask id="mask1_1541_21213" style="mask-type:alpha" maskUnits="userSpaceOnUse" x="104" y="46" width="136" height="50">
<rect x="104" y="46" width="136" height="50" rx="20" fill="black"/>
</mask>
<g mask="url(#mask1_1541_21213)">
<mask id="path-12-outside-1_1541_21213" maskUnits="userSpaceOnUse" x="173" y="58" width="65" height="36" fill="black">
<rect fill="white" x="173" y="58" width="65" height="36"/>
<path fill-rule="evenodd" clip-rule="evenodd" d="M220 60H175V70V76V92H220C228.837 92 236 84.8366 236 76V70H234.837C232.463 64.1363 226.715 60 220 60Z"/>
</mask>
<path fill-rule="evenodd" clip-rule="evenodd" d="M220 60H175V70V76V92H220C228.837 92 236 84.8366 236 76V70H234.837C232.463 64.1363 226.715 60 220 60Z" fill="black"/>
<path d="M175 60V58H173V60H175ZM175 92H173V94H175V92ZM236 70H238V68H236V70ZM234.837 70L232.983 70.7504L233.489 72H234.837V70ZM175 62H220V58H175V62ZM177 70V60H173V70H177ZM177 76V70H173V76H177ZM177 92V76H173V92H177ZM220 90H175V94H220V90ZM234 76C234 83.732 227.732 90 220 90V94C229.941 94 238 85.9411 238 76H234ZM234 70V76H238V70H234ZM234.837 72H236V68H234.837V72ZM220 62C225.872 62 230.905 65.616 232.983 70.7504L236.691 69.2496C234.022 62.6566 227.557 58 220 58V62Z" fill="white" mask="url(#path-12-outside-1_1541_21213)"/>
<path d="M175 51H174V52V84V85H175H220C229.389 85 237 77.3888 237 68C237 58.6112 229.389 51 220 51H175Z" fill="black" stroke="white" stroke-width="2"/>
<mask id="path-15-outside-2_1541_21213" maskUnits="userSpaceOnUse" x="106" y="58" width="65" height="36" fill="black">
<rect fill="white" x="106" y="58" width="65" height="36"/>
<path fill-rule="evenodd" clip-rule="evenodd" d="M108 76V70H109.163C111.537 64.1363 117.285 60 124 60H169V70V76V92H124C115.163 92 108 84.8366 108 76Z"/>
</mask>
<path fill-rule="evenodd" clip-rule="evenodd" d="M108 76V70H109.163C111.537 64.1363 117.285 60 124 60H169V70V76V92H124C115.163 92 108 84.8366 108 76Z" fill="black"/>
<path d="M108 70V68H106V70H108ZM109.163 70V72H110.511L111.017 70.7504L109.163 70ZM169 60H171V58H169V60ZM169 92V94H171V92H169ZM110 76V70H106V76H110ZM108 72H109.163V68H108V72ZM111.017 70.7504C113.095 65.616 118.128 62 124 62V58C116.443 58 109.978 62.6566 107.309 69.2496L111.017 70.7504ZM124 62H169V58H124V62ZM167 60V70H171V60H167ZM167 70V76H171V70H167ZM167 76V92H171V76H167ZM169 90H124V94H169V90ZM124 90C116.268 90 110 83.732 110 76H106C106 85.9411 114.059 94 124 94V90Z" fill="white" mask="url(#path-15-outside-2_1541_21213)"/>
<path d="M170 52V51H169H124C114.611 51 107 58.6112 107 68C107 77.3888 114.611 85 124 85H169H170V84V52Z" fill="black" stroke="white" stroke-width="2"/>
</g>
<rect x="62" y="122" width="220" height="196" rx="26" fill="black"/>
<path opacity="0.1" d="M136 268L160 268" stroke="white" stroke-width="4.5" stroke-linecap="round" stroke-linejoin="round"/>
<path opacity="0.1" d="M112 268L136 268" stroke="white" stroke-width="4.5" stroke-linecap="round" stroke-linejoin="round"/>
<path opacity="0.1" d="M160 244L160 268" stroke="white" stroke-width="4.5" stroke-linecap="round" stroke-linejoin="round"/>
<path d="M160 244C160 257.255 149.255 268 136 268" stroke="white" stroke-width="4.5" stroke-linecap="round" stroke-linejoin="round"/>
<path opacity="0.1" d="M136 220V268" stroke="white" stroke-width="4.5" stroke-linecap="round" stroke-linejoin="round"/>
<path d="M136 268C122.745 268 112 257.255 112 244" stroke="white" stroke-width="4.5" stroke-linecap="round" stroke-linejoin="round"/>
<path opacity="0.1" d="M112 244V268" stroke="white" stroke-width="4.5" stroke-linecap="round" stroke-linejoin="round"/>
<path d="M160 220L160 244" stroke="white" stroke-width="4.5" stroke-linecap="round" stroke-linejoin="round"/>
<path opacity="0.1" d="M136 220C149.255 220 160 230.745 160 244" stroke="white" stroke-width="4.5" stroke-linecap="round" stroke-linejoin="round"/>
<path opacity="0.1" d="M112 244C112 230.745 122.745 220 136 220" stroke="white" stroke-width="4.5" stroke-linecap="round" stroke-linejoin="round"/>
<path d="M112 220L112 244" stroke="white" stroke-width="4.5" stroke-linecap="round" stroke-linejoin="round"/>
<path d="M136 220L160 220" stroke="white" stroke-width="4.5" stroke-linecap="round" stroke-linejoin="round"/>
<path opacity="0.1" d="M136 220H112" stroke="white" stroke-width="4.5" stroke-linecap="round" stroke-linejoin="round"/>
<path opacity="0.1" d="M160 196L160 220" stroke="white" stroke-width="4.5" stroke-linecap="round" stroke-linejoin="round"/>
<path opacity="0.1" d="M160 196C160 209.255 149.255 220 136 220" stroke="white" stroke-width="4.5" stroke-linecap="round" stroke-linejoin="round"/>
<path opacity="0.1" d="M136 220C122.745 220 112 209.255 112 196" stroke="white" stroke-width="4.5" stroke-linecap="round" stroke-linejoin="round"/>
<path d="M112 196L112 220" stroke="white" stroke-width="4.5" stroke-linecap="round" stroke-linejoin="round"/>
<path opacity="0.1" d="M160 196L160 172" stroke="white" stroke-width="4.5" stroke-linecap="round" stroke-linejoin="round"/>
<path d="M136 172C149.255 172 160 182.745 160 196" stroke="white" stroke-width="4.5" stroke-linecap="round" stroke-linejoin="round"/>
<path opacity="0.1" d="M136 172V220" stroke="white" stroke-width="4.5" stroke-linecap="round" stroke-linejoin="round"/>
<path d="M112 196C112 182.745 122.745 172 136 172" stroke="white" stroke-width="4.5" stroke-linecap="round" stroke-linejoin="round"/>
<path opacity="0.1" d="M112 196V172" stroke="white" stroke-width="4.5" stroke-linecap="round" stroke-linejoin="round"/>
<path opacity="0.1" d="M136 172H160" stroke="white" stroke-width="4.5" stroke-linecap="round" stroke-linejoin="round"/>
<path opacity="0.1" d="M112 172H136" stroke="white" stroke-width="4.5" stroke-linecap="round" stroke-linejoin="round"/>
<path opacity="0.1" d="M208 268L232 268" stroke="white" stroke-width="4.5" stroke-linecap="round" stroke-linejoin="round"/>
<path opacity="0.1" d="M184 268L208 268" stroke="white" stroke-width="4.5" stroke-linecap="round" stroke-linejoin="round"/>
<path d="M232 244L232 268" stroke="white" stroke-width="4.5" stroke-linecap="round" stroke-linejoin="round"/>
<path opacity="0.1" d="M232 244C232 257.255 221.255 268 208 268" stroke="white" stroke-width="4.5" stroke-linecap="round" stroke-linejoin="round"/>
<path opacity="0.1" d="M208 220V268" stroke="white" stroke-width="4.5" stroke-linecap="round" stroke-linejoin="round"/>
<path opacity="0.1" d="M208 268C194.745 268 184 257.255 184 244" stroke="white" stroke-width="4.5" stroke-linecap="round" stroke-linejoin="round"/>
<path d="M184 244V268" stroke="white" stroke-width="4.5" stroke-linecap="round" stroke-linejoin="round"/>
<path d="M232 220L232 244" stroke="white" stroke-width="4.5" stroke-linecap="round" stroke-linejoin="round"/>
<path opacity="0.1" d="M208 220C221.255 220 232 230.745 232 244" stroke="white" stroke-width="4.5" stroke-linecap="round" stroke-linejoin="round"/>
<path opacity="0.1" d="M184 244C184 230.745 194.745 220 208 220" stroke="white" stroke-width="4.5" stroke-linecap="round" stroke-linejoin="round"/>
<path d="M184 220L184 244" stroke="white" stroke-width="4.5" stroke-linecap="round" stroke-linejoin="round"/>
<path opacity="0.1" d="M208 220L232 220" stroke="white" stroke-width="4.5" stroke-linecap="round" stroke-linejoin="round"/>
<path opacity="0.1" d="M208 220H184" stroke="white" stroke-width="4.5" stroke-linecap="round" stroke-linejoin="round"/>
<path d="M232 196L232 220" stroke="white" stroke-width="4.5" stroke-linecap="round" stroke-linejoin="round"/>
<path d="M232 196C232 209.255 221.255 220 208 220" stroke="white" stroke-width="4.5" stroke-linecap="round" stroke-linejoin="round"/>
<path d="M208 220C194.745 220 184 209.255 184 196" stroke="white" stroke-width="4.5" stroke-linecap="round" stroke-linejoin="round"/>
<path d="M184 196L184 220" stroke="white" stroke-width="4.5" stroke-linecap="round" stroke-linejoin="round"/>
<path d="M232 196L232 172" stroke="white" stroke-width="4.5" stroke-linecap="round" stroke-linejoin="round"/>
<path opacity="0.1" d="M208 172C221.255 172 232 182.745 232 196" stroke="white" stroke-width="4.5" stroke-linecap="round" stroke-linejoin="round"/>
<path opacity="0.1" d="M208 172V220" stroke="white" stroke-width="4.5" stroke-linecap="round" stroke-linejoin="round"/>
<path opacity="0.1" d="M184 196C184 182.745 194.745 172 208 172" stroke="white" stroke-width="4.5" stroke-linecap="round" stroke-linejoin="round"/>
<path d="M184 196V172" stroke="white" stroke-width="4.5" stroke-linecap="round" stroke-linejoin="round"/>
<path opacity="0.1" d="M208 172H232" stroke="white" stroke-width="4.5" stroke-linecap="round" stroke-linejoin="round"/>
<path opacity="0.1" d="M184 172H208" stroke="white" stroke-width="4.5" stroke-linecap="round" stroke-linejoin="round"/>
<rect x="62" y="122" width="220" height="196" rx="26" stroke="white" stroke-width="4"/>
</svg>
